{
  "asset": {
    "version": "2.0",
    "generator": "THREE.GLTFExporter"
  },
  "scenes": [
    {
      "nodes": [
        0
      ]
    }
  ],
  "scene": 0,
  "nodes": [
    {
      "children": [
        5
      ],
      "matrix": [
        0.01,
        0,
        0,
        0,
        0,
        0.01,
        0,
        0,
        0,
        0,
        0.01,
        0,
        0,
        0,
        0,
        1
      ]
    },
    {
      "matrix": [
        0.7534554280506998,
        0.2082177155539237,
        -0.6236588016459337,
        0,
        0.5075098256562676,
        0.6025692421004382,
        0.8143100404302658,
        0,
        0.48132126726436947,
        -0.8208603223376713,
        0.30743807326145445,
        0,
        1187.9615877146132,
        1486.7714294853242,
        1287.1734441072517,
        1
      ],
      "name": "Cylinder",
      "mesh": 0
    },
    {
      "matrix": [
        0.2499977750007752,
        -0.3327859856688483,
        -0.9092604688630618,
        0,
        0.799528912318497,
        0.6006276037336289,
        0,
        0,
        0.5461269365829367,
        -0.7269800336842904,
        0.41622758169410773,
        0,
        0,
        0,
        0,
        1
      ],
      "name": "Directional Light",
      "extensions": {
        "KHR_lights_punctual": {
          "light": 0
        }
      }
    },
    {
      "matrix": [
        0.7071067751031741,
        1.216674719306532e-8,
        -0.7071067872699209,
        0,
        -0.4082483010005751,
        0.8164965809277259,
        -0.40824827992715107,
        0,
        0.5773502691896256,
        0.5773502691896258,
        0.577350269189626,
        0,
        523.7028345447504,
        639.5017722642589,
        568.8462007598664,
        1
      ],
      "camera": 0
    },
    {
      "matrix": [
        1,
        0,
        0,
        0,
        0,
        1,
        0,
        0,
        0,
        0,
        1,
        0,
        0,
        1,
        0,
        1
      ],
      "name": "Default Ambient Light"
    },
    {
      "name": "Scene",
      "children": [
        1,
        2,
        3,
        4
      ]
    }
  ],
  "bufferViews": [
    {
      "buffer": 0,
      "byteOffset": 0,
      "byteLength": 18720,
      "target": 34962,
      "byteStride": 12
    },
    {
      "buffer": 0,
      "byteOffset": 18720,
      "byteLength": 18720,
      "target": 34962,
      "byteStride": 12
    },
    {
      "buffer": 0,
      "byteOffset": 37440,
      "byteLength": 12480,
      "target": 34962,
      "byteStride": 8
    },
    {
      "buffer": 0,
      "byteOffset": 49920,
      "byteLength": 17280,
      "target": 34963
    }
  ],
  "buffers": [
    {
      "byteLength": 67200,
      "uri": "data:application/octet-stream;base64,"
    }
  ],
  "accessors": [
    {
      "bufferView": 0,
      "componentType": 5126,
      "count": 1560,
      "max": [
        269.3283996582031,
        2385.514892578125,
        332.039794921875
      ],
      "min": [
        -269.3283996582031,
        -2385.514892578125,
        -332.039794921875
      ],
      "type": "VEC3"
    },
    {
      "bufferView": 1,
      "componentType": 5126,
      "count": 1560,
      "max": [
        1,
        1,
        1
      ],
      "min": [
        -1,
        -1,
        -1
      ],
      "type": "VEC3"
    },
    {
      "bufferView": 2,
      "componentType": 5126,
      "count": 1560,
      "max": [
        1,
        1
      ],
      "min": [
        0,
        0
      ],
      "type": "VEC2"
    },
    {
      "bufferView": 3,
      "componentType": 5123,
      "count": 8640,
      "max": [
        1558
      ],
      "min": [
        0
      ],
      "type": "SCALAR"
    }
  ],
  "meshes": [
    {
      "primitives": [
        {
          "mode": 4,
          "attributes": {
            "POSITION": 0,
            "NORMAL": 1,
            "TEXCOORD_0": 2
          },
          "extras": {
            "parameters": {
              "width": 538.6567688901912,
              "radialSegments": 64,
              "heightSegments": 1,
              "openEnded": false,
              "thetaStart": 0,
              "thetaLength": 360,
              "cornerRadius": 19,
              "cornerSegments": 8,
              "hollow": 0,
              "depth": 664.0795257011214,
              "height": 4771.030015599363,
              "radiusTop": 269.3283844450956,
              "radiusBottom": 269.3283844450956,
              "type": "CylinderGeometry"
            },
            "type": "CylinderGeometry"
          },
          "indices": 3
        }
      ]
    }
  ],
  "extensions": {
    "KHR_lights_punctual": {
      "lights": [
        {
          "name": "Directional Light",
          "color": [
            1,
            1,
            1
          ],
          "intensity": 0.7,
          "type": "directional"
        }
      ]
    }
  },
  "cameras": [
    {
      "type": "orthographic",
      "orthographic": {
        "xmag": 17.321782666235208,
        "ymag": 8.919977825988642,
        "zfar": 100000,
        "znear": 0
      }
    }
  ],
  "extensionsUsed": [
    "KHR_lights_punctual"
  ]
}